<svg width="41" height="27" viewBox="0 0 41 27" fill="none" xmlns="http://www.w3.org/2000/svg">
<path d="M12.1422 0C13.3699 0 14.4905 0.114397 15.504 0.340806C16.5176 0.567216 17.3831 0.939005 18.1051 1.45617C18.8271 1.97334 19.3874 2.65972 19.786 3.51769C20.1846 4.37567 20.3828 5.43384 20.3828 6.69458C20.3828 8.05542 20.0867 9.18986 19.4968 10.0979C18.9069 11.0059 18.0322 11.7495 16.8775 12.3286C18.4673 12.8076 19.6539 13.6466 20.4374 14.843C21.221 16.0394 21.6127 17.4836 21.6127 19.1733C21.6127 20.5342 21.3599 21.7139 20.8543 22.7101C20.3486 23.7063 19.6676 24.519 18.8112 25.1482C17.9548 25.7797 16.98 26.2445 15.8844 26.5472C14.782 26.8498 13.6455 27.0024 12.5066 27H0V0H12.1422ZM11.4202 10.9273C12.4315 10.9273 13.2628 10.6746 13.9142 10.1718C14.5656 9.66651 14.8913 8.84905 14.8891 7.71462C14.8891 7.08544 14.7797 6.56827 14.5634 6.1655C14.347 5.76273 14.0577 5.44575 13.6956 5.21934C13.3334 4.99293 12.9189 4.83564 12.4497 4.74746C11.9668 4.65928 11.4771 4.61399 10.9852 4.61638H5.67593V10.932L11.4202 10.9273ZM11.7459 22.3836C12.2811 22.386 12.8141 22.3288 13.3357 22.2144C13.8413 22.1 14.2878 21.9117 14.6727 21.6472C15.0576 21.3826 15.3651 21.0228 15.5951 20.5699C15.8229 20.1171 15.9391 19.5356 15.9391 18.8302C15.9391 17.4455 15.5655 16.454 14.8185 15.863C14.0714 15.2696 13.0829 14.974 11.8552 14.974H5.67593V22.386L11.7459 22.3836ZM28.7509 21.8164C29.5208 22.5981 30.63 22.9889 32.0763 22.9889C33.1126 22.9889 34.0032 22.7173 34.7503 22.1763C35.4973 21.6353 35.9552 21.0609 36.1237 20.4555H40.6403C39.9183 22.8007 38.8091 24.4761 37.3149 25.4842C35.8208 26.4923 34.0146 26.9976 31.8941 26.9976C30.425 26.9976 29.0994 26.7521 27.9196 26.2612C26.7397 25.7702 25.7398 25.0695 24.9199 24.1615C24.0999 23.2535 23.4667 22.1715 23.0226 20.9107C22.5784 19.65 22.3552 18.2629 22.3552 16.7519C22.3552 15.241 22.583 13.9302 23.0408 12.6694C23.4986 11.4087 24.15 10.3195 24.9928 9.39958C25.8355 8.47965 26.8422 7.75513 28.0107 7.22605C29.1791 6.69697 30.4751 6.43242 31.8964 6.43242C33.4862 6.43242 34.871 6.75416 36.0531 7.39764C37.2329 8.04113 38.2032 8.90387 38.9617 9.98825C39.7201 11.0726 40.269 12.3072 40.6061 13.6942C40.9432 15.0813 41.0639 16.5303 40.9683 18.0437H27.4891C27.5597 19.7763 27.9811 21.0371 28.7509 21.8164ZM34.5521 11.5326C33.9371 10.8272 33.0033 10.4744 31.7506 10.4744C30.9306 10.4744 30.2496 10.6198 29.7098 10.9082C29.1677 11.1989 28.735 11.5564 28.4093 11.9854C28.0836 12.4144 27.8558 12.8672 27.7237 13.3463C27.5916 13.8253 27.5119 14.2543 27.4891 14.6308H35.8367C35.593 13.2724 35.1648 12.238 34.5521 11.5326ZM26.6099 1.37038H37.0393V4.39712H26.6099V1.37038Z" fill="white"/>
</svg>
