<svg width="24" height="24" viewBox="0 0 24 24" fill="none" xmlns="http://www.w3.org/2000/svg">
<path d="M23.2401 0.194153C22.9811 -0.0647175 22.5615 -0.0647175 22.3026 0.194153L11.7171 10.7771L1.13166 0.194153C0.872723 -0.0647175 0.453132 -0.0647175 0.194199 0.194153C-0.0647332 0.453023 -0.0647332 0.872512 0.194199 1.13138L10.7797 11.7143L0.194199 22.2972C-0.0647332 22.5561 -0.0647332 22.9756 0.194199 23.2344C0.324093 23.3643 0.493296 23.4284 0.663354 23.4284C0.833412 23.4284 1.00262 23.3634 1.13251 23.2344L11.718 12.6515L22.3035 23.2344C22.4333 23.3643 22.6026 23.4284 22.7726 23.4284C22.9427 23.4284 23.1119 23.3634 23.2418 23.2344C23.5007 22.9756 23.5007 22.5561 23.2418 22.2972L12.6563 11.7143L23.2418 1.13138C23.5007 0.872512 23.5007 0.453023 23.2418 0.194153H23.2401Z" fill="white"/>
</svg>
