<svg width="15" height="15" viewBox="0 0 15 15" fill="none" xmlns="http://www.w3.org/2000/svg">
<mask id="mask0_200_4645" style="mask-type:alpha" maskUnits="userSpaceOnUse" x="0" y="0" width="15" height="15">
<rect width="15" height="15" fill="#D9D9D9"/>
</mask>
<g mask="url(#mask0_200_4645)">
<path d="M4.0625 6.875L7.5 1.25L10.9375 6.875H4.0625ZM10.9375 13.75C10.1562 13.75 9.49219 13.4766 8.94531 12.9297C8.39844 12.3828 8.125 11.7188 8.125 10.9375C8.125 10.1562 8.39844 9.49219 8.94531 8.94531C9.49219 8.39844 10.1562 8.125 10.9375 8.125C11.7188 8.125 12.3828 8.39844 12.9297 8.94531C13.4766 9.49219 13.75 10.1562 13.75 10.9375C13.75 11.7188 13.4766 12.3828 12.9297 12.9297C12.3828 13.4766 11.7188 13.75 10.9375 13.75ZM1.875 13.4375V8.4375H6.875V13.4375H1.875ZM10.9375 12.5C11.375 12.5 11.7448 12.349 12.0469 12.0469C12.349 11.7448 12.5 11.375 12.5 10.9375C12.5 10.5 12.349 10.1302 12.0469 9.82812C11.7448 9.52604 11.375 9.375 10.9375 9.375C10.5 9.375 10.1302 9.52604 9.82812 9.82812C9.52604 10.1302 9.375 10.5 9.375 10.9375C9.375 11.375 9.52604 11.7448 9.82812 12.0469C10.1302 12.349 10.5 12.5 10.9375 12.5ZM3.125 12.1875H5.625V9.6875H3.125V12.1875ZM6.28125 5.625H8.71875L7.5 3.65625L6.28125 5.625Z" fill="white"/>
</g>
</svg>
