<svg width="16" height="16" viewBox="0 0 16 16" fill="none" xmlns="http://www.w3.org/2000/svg">
<mask id="mask0_200_4648" style="mask-type:alpha" maskUnits="userSpaceOnUse" x="0" y="0" width="16" height="16">
<rect width="15.1883" height="15.1883" fill="#D9D9D9"/>
</mask>
<g mask="url(#mask0_200_4648)">
<path d="M7.59422 13.9226C6.47619 13.9226 5.56384 13.7459 4.85716 13.3926C4.15049 13.0393 3.79715 12.5831 3.79715 12.0241C3.79715 11.7709 3.87362 11.5363 4.02656 11.32C4.17949 11.1038 4.39308 10.9166 4.66731 10.7584L5.66404 11.6918C5.56911 11.734 5.46628 11.7815 5.35553 11.8342C5.24478 11.887 5.15777 11.9503 5.09448 12.0241C5.2316 12.1928 5.54802 12.3405 6.04375 12.4671C6.53948 12.5936 7.0563 12.6569 7.59422 12.6569C8.13213 12.6569 8.65159 12.5936 9.15259 12.4671C9.6536 12.3405 9.97265 12.1928 10.1098 12.0241C10.0359 11.9397 9.94101 11.8711 9.82499 11.8184C9.70897 11.7657 9.59822 11.7182 9.49275 11.676L10.4737 10.7268C10.769 10.8955 10.9958 11.088 11.154 11.3042C11.3122 11.5204 11.3913 11.7604 11.3913 12.0241C11.3913 12.5831 11.0379 13.0393 10.3313 13.3926C9.62459 13.7459 8.71224 13.9226 7.59422 13.9226ZM7.61004 10.442C8.65423 9.67201 9.44001 8.89942 9.96738 8.12418C10.4948 7.34895 10.7584 6.57108 10.7584 5.79057C10.7584 4.71474 10.4156 3.90259 9.73006 3.35412C9.04448 2.80566 8.33253 2.53142 7.59422 2.53142C6.8559 2.53142 6.14395 2.80566 5.45837 3.35412C4.77279 3.90259 4.42999 4.71474 4.42999 5.79057C4.42999 6.49725 4.68841 7.23293 5.20523 7.99761C5.72205 8.7623 6.52365 9.57709 7.61004 10.442ZM7.59422 12.0241C6.10703 10.9272 4.99692 9.86187 4.26387 8.82822C3.53083 7.79458 3.16431 6.78203 3.16431 5.79057C3.16431 5.04171 3.29879 4.38513 3.56774 3.82084C3.8367 3.25656 4.18213 2.78456 4.60403 2.40486C5.02592 2.02515 5.50056 1.74037 6.02793 1.55052C6.5553 1.36066 7.07739 1.26574 7.59422 1.26574C8.11104 1.26574 8.63313 1.36066 9.1605 1.55052C9.68787 1.74037 10.1625 2.02515 10.5844 2.40486C11.0063 2.78456 11.3517 3.25656 11.6207 3.82084C11.8896 4.38513 12.0241 5.04171 12.0241 5.79057C12.0241 6.78203 11.6576 7.79458 10.9246 8.82822C10.1915 9.86187 9.0814 10.9272 7.59422 12.0241ZM7.59422 6.96133C7.94228 6.96133 8.24024 6.8374 8.48811 6.58954C8.73597 6.34167 8.8599 6.04371 8.8599 5.69564C8.8599 5.34758 8.73597 5.04962 8.48811 4.80175C8.24024 4.55389 7.94228 4.42996 7.59422 4.42996C7.24615 4.42996 6.94819 4.55389 6.70032 4.80175C6.45246 5.04962 6.32853 5.34758 6.32853 5.69564C6.32853 6.04371 6.45246 6.34167 6.70032 6.58954C6.94819 6.8374 7.24615 6.96133 7.59422 6.96133Z" fill="white"/>
</g>
</svg>
