<svg width="16" height="16" viewBox="0 0 16 16" fill="none" xmlns="http://www.w3.org/2000/svg">
<mask id="mask0_310_484" style="mask-type:alpha" maskUnits="userSpaceOnUse" x="0" y="0" width="16" height="16">
<rect width="15.9169" height="15.9169" fill="#D9D9D9"/>
</mask>
<g mask="url(#mask0_310_484)">
<path d="M0.663208 13.2641V11.4072C0.663208 11.0313 0.759926 10.6859 0.953361 10.3709C1.1468 10.0559 1.40379 9.81546 1.72434 9.64966C2.40965 9.307 3.10602 9.05001 3.81344 8.87868C4.52086 8.70735 5.23933 8.62169 5.96886 8.62169C6.69838 8.62169 7.41686 8.70735 8.12428 8.87868C8.8317 9.05001 9.52806 9.307 10.2134 9.64966C10.5339 9.81546 10.7909 10.0559 10.9844 10.3709C11.1778 10.6859 11.2745 11.0313 11.2745 11.4072V13.2641H0.663208ZM12.6009 13.2641V11.2745C12.6009 10.7882 12.4655 10.3212 12.1947 9.87349C11.9239 9.42582 11.5398 9.04172 11.0424 8.72117C11.6061 8.78749 12.1367 8.90079 12.6341 9.06106C13.1315 9.22134 13.5957 9.41753 14.0268 9.64966C14.4247 9.87073 14.7287 10.1167 14.9387 10.3875C15.1487 10.6583 15.2537 10.954 15.2537 11.2745V13.2641H12.6009ZM5.96886 7.95848C5.23933 7.95848 4.61481 7.69873 4.0953 7.17921C3.57579 6.6597 3.31603 6.03518 3.31603 5.30566C3.31603 4.57613 3.57579 3.95161 4.0953 3.4321C4.61481 2.91259 5.23933 2.65283 5.96886 2.65283C6.69838 2.65283 7.3229 2.91259 7.84241 3.4321C8.36193 3.95161 8.62168 4.57613 8.62168 5.30566C8.62168 6.03518 8.36193 6.6597 7.84241 7.17921C7.3229 7.69873 6.69838 7.95848 5.96886 7.95848ZM12.6009 5.30566C12.6009 6.03518 12.3412 6.6597 11.8217 7.17921C11.3021 7.69873 10.6776 7.95848 9.94809 7.95848C9.82651 7.95848 9.67176 7.94466 9.48385 7.91703C9.29594 7.8894 9.14119 7.859 9.0196 7.82584C9.31805 7.47213 9.54741 7.07973 9.70768 6.64865C9.86796 6.21756 9.94809 5.7699 9.94809 5.30566C9.94809 4.84141 9.86796 4.39375 9.70768 3.96266C9.54741 3.53158 9.31805 3.13918 9.0196 2.78547C9.17435 2.73021 9.3291 2.69428 9.48385 2.6777C9.6386 2.66112 9.79335 2.65283 9.94809 2.65283C10.6776 2.65283 11.3021 2.91259 11.8217 3.4321C12.3412 3.95161 12.6009 4.57613 12.6009 5.30566ZM1.98962 11.9377H9.94809V11.4072C9.94809 11.2856 9.9177 11.175 9.8569 11.0755C9.79611 10.9761 9.71597 10.8987 9.61649 10.8434C9.0196 10.545 8.41719 10.3212 7.80925 10.1719C7.20132 10.0227 6.58785 9.9481 5.96886 9.9481C5.34986 9.9481 4.7364 10.0227 4.12846 10.1719C3.52052 10.3212 2.91811 10.545 2.32122 10.8434C2.22174 10.8987 2.14161 10.9761 2.08081 11.0755C2.02002 11.175 1.98962 11.2856 1.98962 11.4072V11.9377ZM5.96886 6.63207C6.33362 6.63207 6.64588 6.50219 6.90564 6.24243C7.16539 5.98268 7.29527 5.67042 7.29527 5.30566C7.29527 4.94089 7.16539 4.62863 6.90564 4.36888C6.64588 4.10912 6.33362 3.97924 5.96886 3.97924C5.60409 3.97924 5.29183 4.10912 5.03208 4.36888C4.77232 4.62863 4.64244 4.94089 4.64244 5.30566C4.64244 5.67042 4.77232 5.98268 5.03208 6.24243C5.29183 6.50219 5.60409 6.63207 5.96886 6.63207Z" fill="white"/>
</g>
</svg>
