<svg width="27" height="27" viewBox="0 0 27 27" fill="none" xmlns="http://www.w3.org/2000/svg">
<g clip-path="url(#clip0_319_4519)">
<path d="M26.9141 7.932C26.8488 6.49348 26.6224 5.51267 26.2854 4.6576C25.9384 3.77236 25.4807 3.01788 24.7262 2.26844C23.9767 1.519 23.2223 1.05626 22.337 0.709203C21.4769 0.377235 20.4961 0.145864 19.0626 0.0804769C17.6241 0.0150894 17.1614 0 13.4946 0C9.8279 0 9.37019 0.0150894 7.92663 0.0804769C6.48811 0.145864 5.5073 0.372206 4.65223 0.709203C3.76698 1.05626 3.01251 1.51397 2.26307 2.26844C1.51363 3.01788 1.05089 3.77236 0.703831 4.6576C0.371864 5.5177 0.140493 6.49851 0.0751058 7.932C0.00971833 9.37053 -0.00537109 9.83327 -0.00537109 13.5C-0.00537109 17.1667 0.00971833 17.6244 0.0751058 19.068C0.140493 20.5065 0.366834 21.4873 0.703831 22.3424C1.05089 23.2276 1.5086 23.9821 2.26307 24.7316C3.01251 25.481 3.76698 25.9437 4.65223 26.2908C5.51233 26.6228 6.49314 26.8541 7.92663 26.9195C9.36516 26.9849 9.8279 27 13.4946 27C17.1614 27 17.6191 26.9849 19.0626 26.9195C20.5011 26.8541 21.482 26.6278 22.337 26.2908C23.2223 25.9437 23.9767 25.486 24.7262 24.7316C25.4756 23.9821 25.9384 23.2276 26.2854 22.3424C26.6174 21.4823 26.8488 20.5015 26.9141 19.068C26.9795 17.6295 26.9946 17.1667 26.9946 13.5C26.9946 9.83327 26.9795 9.37556 26.9141 7.932ZM24.4848 18.9523C24.4244 20.2701 24.2031 20.9844 24.022 21.4572C23.7755 22.0859 23.4838 22.5386 23.011 23.0114C22.5382 23.4842 22.0906 23.7759 21.4568 24.0224C20.979 24.2085 20.2647 24.4247 18.952 24.4851C17.5285 24.5505 17.101 24.5656 13.4997 24.5656C9.89832 24.5656 9.46575 24.5505 8.04735 24.4851C6.72954 24.4247 6.01531 24.2034 5.5425 24.0224C4.91378 23.7759 4.4611 23.4842 3.98829 23.0114C3.51549 22.5386 3.22376 22.0909 2.9773 21.4572C2.7912 20.9793 2.57492 20.2651 2.51456 18.9523C2.44917 17.5289 2.43408 17.1013 2.43408 13.5C2.43408 9.89866 2.44917 9.47113 2.51456 8.04769C2.57492 6.72988 2.79623 6.01565 2.9773 5.54285C3.22376 4.91412 3.51549 4.46144 3.98829 3.98864C4.4611 3.51583 4.90875 3.22411 5.5425 2.97765C6.02034 2.79154 6.73457 2.57526 8.04735 2.5149C9.47078 2.44952 9.89832 2.43443 13.4997 2.43443C17.101 2.43443 17.5285 2.44952 18.952 2.5149C20.2698 2.57526 20.984 2.79657 21.4568 2.97765C22.0855 3.22411 22.5382 3.51583 23.011 3.98864C23.4838 4.46144 23.7755 4.90909 24.022 5.54285C24.2081 6.02068 24.4244 6.73491 24.4848 8.04769C24.5501 9.47113 24.5652 9.89866 24.5652 13.5C24.5652 17.1013 24.5501 17.5289 24.4848 18.9523Z" fill="white"/>
<path d="M13.5009 6.56885C9.67321 6.56885 6.56982 9.67224 6.56982 13.4999C6.56982 17.3276 9.67321 20.431 13.5009 20.431C17.3286 20.431 20.432 17.3276 20.432 13.4999C20.432 9.67224 17.3286 6.56885 13.5009 6.56885ZM13.5009 18.0016C11.0162 18.0016 8.99922 15.9846 8.99922 13.4999C8.99922 11.0152 11.0162 8.99824 13.5009 8.99824C15.9856 8.99824 18.0026 11.0152 18.0026 13.4999C18.0026 15.9846 15.9856 18.0016 13.5009 18.0016Z" fill="white"/>
<path d="M20.7026 7.91205C21.5971 7.91205 22.3222 7.18693 22.3222 6.29245C22.3222 5.39797 21.5971 4.67285 20.7026 4.67285C19.8081 4.67285 19.083 5.39797 19.083 6.29245C19.083 7.18693 19.8081 7.91205 20.7026 7.91205Z" fill="white"/>
</g>
<defs>
<clipPath id="clip0_319_4519">
<rect width="27" height="27" fill="white"/>
</clipPath>
</defs>
</svg>
