<svg width="27" height="27" viewBox="0 0 27 27" fill="none" xmlns="http://www.w3.org/2000/svg">
<g clip-path="url(#clip0_319_4524)">
<path d="M0.447839 8.97245H6.05172V27H0.447839V8.97245ZM3.24684 0C5.0323 0 6.48778 1.45802 6.48778 3.24661C6.48778 5.0352 5.0323 6.49913 3.24684 6.49913C1.45548 6.49913 0.00589262 5.0411 0 3.24661C0 1.45212 1.44959 0 3.24094 0M9.54605 8.97245H14.9083V11.434H14.9849C15.7333 10.0173 17.5541 8.52383 20.2883 8.52383C25.9511 8.52383 27 12.2604 27 17.1126V27H21.4079V18.2282C21.4079 16.1386 21.3725 13.4469 18.5028 13.4469C15.6331 13.4469 15.144 15.7254 15.144 18.0748V26.9941H9.55783V8.96655H9.55194L9.54605 8.97245Z" fill="white"/>
</g>
<defs>
<clipPath id="clip0_319_4524">
<rect width="27" height="27" fill="white"/>
</clipPath>
</defs>
</svg>
