<svg width="14" height="12" viewBox="0 0 14 12" fill="none" xmlns="http://www.w3.org/2000/svg">
<g clip-path="url(#clip0_182_913)">
<path d="M1.1028 4.05788H3.62337V11.8539H1.1028V4.05788ZM2.36176 0.177734C3.16484 0.177734 3.8195 0.808259 3.8195 1.58174C3.8195 2.35521 3.16484 2.98829 2.36176 2.98829C1.55603 2.98829 0.904018 2.35777 0.901367 1.58174C0.901367 0.805706 1.55338 0.177734 2.35911 0.177734M5.19508 4.05788H7.60698V5.12237H7.64144C7.97805 4.50972 8.79703 3.86388 10.0268 3.86388C12.5739 3.86388 13.0457 5.47975 13.0457 7.5781V11.8539H10.5304V8.06056C10.5304 7.1569 10.5145 5.99285 9.22375 5.99285C7.93299 5.99285 7.713 6.97821 7.713 7.99419V11.8514H5.20038V4.05533H5.19773L5.19508 4.05788Z" fill="white"/>
</g>
<defs>
<clipPath id="clip0_182_913">
<rect width="12.1443" height="11.6762" fill="white" transform="translate(0.901367 0.177734)"/>
</clipPath>
</defs>
</svg>
