<svg width="65" height="13" viewBox="0 0 65 13" fill="none" xmlns="http://www.w3.org/2000/svg">
<path d="M2.6035 0.590637H15.3733C18.489 0.590637 19.4574 1.67596 19.4574 3.19266C19.4574 4.70935 17.8589 5.53938 16.729 5.71544C17.8589 5.97074 19.3118 6.68947 19.3118 8.5256C19.3118 10.4573 18.2626 12.4689 13.7424 12.4689H0.698486L2.6035 0.590637ZM11.6116 9.27577C12.8064 9.27577 12.9838 8.81296 12.9838 8.44574C12.9838 8.07851 12.774 7.80687 11.8056 7.80687H7.43026L7.20453 9.27577H11.6116ZM12.1445 4.82127C12.9838 4.82127 13.2261 4.5817 13.2261 4.1824C13.2261 3.78311 12.9196 3.67181 12.2252 3.67181H8.09218L7.91478 4.82127H12.1445Z" fill="white"/>
<path d="M25.2857 12.4689H19.2966L21.2016 0.590637H27.1907L25.2857 12.4689Z" fill="white"/>
<path d="M32.3892 4.67791H27.3361L27.998 0.590637H44.0933L43.4314 4.67791H38.3783L37.1352 12.4689H31.1461L32.3892 4.67791Z" fill="white"/>
<path d="M52.085 12.7082C44.9495 12.7082 43.5125 9.77039 43.5125 7.29602C43.5125 6.9288 43.5449 6.48171 43.6091 6.05098C43.9963 3.49675 45.5465 0.35144 53.2149 0.35144H54.0059C61.3678 0.35144 62.6109 3.30496 62.6109 5.66803C62.6109 6.05098 62.5626 6.57792 62.4977 6.97722C62.0457 9.48366 60.6411 12.7088 52.8919 12.7088H52.085V12.7082ZM53.2633 4.13499C50.7287 4.13499 49.9212 5.23667 49.7438 6.24214C49.6955 6.41758 49.6955 6.62508 49.6955 6.81687C49.6955 7.82234 50.4865 8.89258 52.8277 8.89258C55.3298 8.89258 56.1856 7.77518 56.363 6.70557C56.4114 6.51378 56.4114 6.30628 56.4114 6.13084C56.4114 5.15681 55.6528 4.13499 53.2633 4.13499Z" fill="white"/>
<path d="M63.4838 1.65549L63.4698 1.72529C63.4602 1.77623 63.4647 1.79698 63.4698 1.81333L63.4685 1.81836H63.2447C63.2415 1.81081 63.2371 1.79698 63.2447 1.76302L63.2574 1.69825C63.2778 1.59576 63.2447 1.54923 63.1341 1.54923H62.86L62.8066 1.81773H62.5917L62.7468 1.03046H63.2593C63.5073 1.03046 63.562 1.1361 63.562 1.23671C63.562 1.36687 63.4475 1.42535 63.3553 1.43855C63.4431 1.46371 63.5086 1.53036 63.4825 1.65424L63.4838 1.65549ZM62.895 1.37316H63.2034C63.3064 1.37316 63.3274 1.31782 63.3274 1.27821C63.3274 1.23608 63.3038 1.20275 63.2237 1.20275H62.9287L62.8956 1.37316H62.895Z" fill="white"/>
<path d="M63.0865 0.460022C62.5263 0.460022 62.0704 0.910879 62.0704 1.46486C62.0704 2.01884 62.5263 2.4697 63.0865 2.4697C63.6467 2.4697 64.1026 2.01884 64.1026 1.46486C64.1026 0.910879 63.6467 0.460022 63.0865 0.460022ZM63.0865 0.572579C63.5844 0.572579 63.9888 0.973131 63.9888 1.46486C63.9888 1.95659 63.5838 2.35714 63.0865 2.35714C62.5893 2.35714 62.1843 1.95659 62.1843 1.46486C62.1843 0.973131 62.5893 0.572579 63.0865 0.572579Z" fill="white"/>
</svg>
