<svg width="12" height="13" viewBox="0 0 12 13" fill="none" xmlns="http://www.w3.org/2000/svg">
<g clip-path="url(#clip0_200_4368)">
<path d="M5.82927 0.486572C2.60988 0.486572 0 3.11 0 6.34611C0 9.094 1.88216 11.3998 4.42115 12.0331V8.13679H3.21916V6.34611H4.42115V5.57453C4.42115 3.58017 5.3191 2.65577 7.26701 2.65577C7.63635 2.65577 8.27361 2.72867 8.53429 2.80132V4.42442C8.39672 4.40988 8.15772 4.40262 7.86089 4.40262C6.90513 4.40262 6.53578 4.76661 6.53578 5.71281V6.34611H8.43986L8.11272 8.13679H6.53578V12.1628C9.4222 11.8124 11.6588 9.34198 11.6588 6.34611C11.6585 3.11 9.04867 0.486572 5.82927 0.486572Z" fill="white"/>
</g>
<defs>
<clipPath id="clip0_200_4368">
<rect width="11.6586" height="11.6762" fill="white" transform="translate(0 0.486572)"/>
</clipPath>
</defs>
</svg>
