<svg width="90" height="14" viewBox="0 0 90 14" fill="none" xmlns="http://www.w3.org/2000/svg">
<path d="M7.26216 14L0.053833 6.99926L7.26216 0L14.4705 6.99926L7.26216 13.9985V14ZM0.69338 6.99926L7.26216 13.3775L13.8309 6.99926L7.26216 0.620998L0.69338 6.99926Z" fill="white"/>
<path d="M7.28798 12.0148L2.12866 6.99917L7.26038 2.0163L8.15605 2.88599L3.92001 6.99917L8.18365 11.1436L7.28798 12.0148Z" fill="white"/>
<path d="M9.1698 10.1863L8.26953 9.32109L10.6099 7.02474L8.32934 4.77902L9.22348 3.92273L12.4182 7.03367L9.1698 10.1863Z" fill="white"/>
<path d="M7.26157 5.66193L5.88428 6.99927L7.26157 8.33661L8.63885 6.99927L7.26157 5.66193Z" fill="white"/>
<path d="M20.7229 6.8162H24.1353V10.5675H22.9805V9.59952C22.4452 10.3129 21.5633 10.7 20.502 10.7C18.3809 10.7 16.7966 9.06937 16.7966 6.99938C16.7966 4.92938 18.4024 3.29871 20.6078 3.29871C22.3087 3.29871 23.758 4.35902 24.1353 5.77525H22.8547C22.5495 5.01129 21.6584 4.43944 20.6078 4.43944C19.0542 4.43944 18.0036 5.52953 18.0036 6.99789C18.0036 8.46624 19.0849 9.60697 20.6078 9.60697C21.8256 9.60697 22.8225 8.99491 22.9283 7.86311H20.7229V6.81323V6.8162Z" fill="white"/>
<path d="M31.3696 9.44598V10.5674H27.0646V3.43109H31.316V4.55246H28.2716V6.40801H31.0537V7.50853H28.2716V9.44598H31.3681H31.3696Z" fill="white"/>
<path d="M39.339 3.43109V10.5674H38.3942L35.2977 5.72446V10.5674H34.0907V3.43109H35.0354L38.132 8.27398V3.43109H39.339Z" fill="white"/>
<path d="M43.6334 3.43109V10.5674H42.4264V3.43109H43.6334Z" fill="white"/>
<path d="M46.3525 6.99931C46.3525 4.92932 48.0427 3.29865 50.1637 3.29865C52.2848 3.29865 53.975 4.92932 53.975 6.99931C53.975 9.06931 52.2956 10.7 50.1637 10.7C48.0319 10.7 46.3525 9.06931 46.3525 6.99931ZM52.7679 6.99931C52.7679 5.53096 51.6346 4.44086 50.1637 4.44086C48.6929 4.44086 47.5595 5.53096 47.5595 6.99931C47.5595 8.46767 48.6929 9.55777 50.1637 9.55777C51.6346 9.55777 52.7679 8.46767 52.7679 6.99931Z" fill="white"/>
<path d="M59.0452 7.96869H57.9011V10.5688H56.6941V3.43109H59.4241C60.7369 3.43109 61.7859 4.4512 61.7859 5.72446C61.7859 6.63139 61.1878 7.44747 60.3366 7.79446L62.7307 10.5674H61.2921L59.0452 7.9672V7.96869ZM57.9011 6.91881H59.4241C60.0651 6.91881 60.5789 6.38865 60.5789 5.72595C60.5789 5.06326 60.0651 4.5331 59.4241 4.5331H57.9011V6.91881Z" fill="white"/>
<path d="M69.1034 9.13027H66.0483L65.5544 10.5674H64.2416L66.8565 3.43109H68.3058L70.91 10.5674H69.6079L69.1034 9.13027ZM68.7153 8.02975L67.5819 4.76691L66.4378 8.02975H68.7153Z" fill="white"/>
<path d="M80.3482 10.5674H79.1412V5.36854L77.3038 9.39535H76.3591L74.5217 5.36854V10.5674H73.3147V3.43109H74.7211L76.8314 8.03869L78.9418 3.43109H80.3482V10.5674Z" fill="white"/>
<path d="M87.6132 9.13027H84.5581L84.0643 10.5674H82.7515L85.3664 3.43109H86.8157L89.4199 10.5674H88.1178L87.6132 9.13027ZM87.2252 8.02975L86.0918 4.76691L84.9477 8.02975H87.2252Z" fill="white"/>
</svg>
