<svg width="105" height="23" viewBox="0 0 105 23" fill="none" xmlns="http://www.w3.org/2000/svg">
<g clip-path="url(#clip0_200_4306)">
<path d="M105 1.8035C105 2.25134 104.776 2.46922 104.319 2.46922H103.522C103.07 2.46922 102.846 2.2465 102.846 1.79381V0.820655C102.846 0.370387 103.07 0.140411 103.522 0.140411H104.319C104.773 0.140411 105 0.367966 105 0.820655V1.80108V1.8035ZM103.548 0.392174C103.207 0.392174 103.095 0.520476 103.095 0.847283V1.77445C103.095 2.07705 103.207 2.22471 103.495 2.22471H104.322C104.639 2.22471 104.756 2.0722 104.756 1.78171V0.844862C104.756 0.542263 104.634 0.389753 104.322 0.389753H103.548V0.392174ZM104.429 1.14262C104.429 1.27092 104.349 1.36291 104.188 1.37986L104.439 1.8858H104.193L103.975 1.40649H103.675V1.8858H103.463V0.651199H104.09C104.319 0.651199 104.432 0.74561 104.432 0.924749V1.1402L104.429 1.14262ZM103.673 0.873912V1.2104H104.115C104.178 1.2104 104.21 1.17651 104.21 1.11115V0.975585C104.21 0.910224 104.168 0.876333 104.085 0.876333H103.673V0.873912Z" fill="#1DEC80"/>
<path d="M5.5633 18.1075C3.74303 18.1075 2.34976 17.7299 1.42255 16.9819C0.478249 16.2193 0 15.0694 0 13.5637V4.69391C0 3.19786 0.478249 2.05282 1.42255 1.29511C2.34976 0.55193 3.74303 0.174286 5.5633 0.174286H23.0462V2.66044C23.0462 3.83695 22.0824 4.79316 20.8965 4.79316H5.5633C4.92889 4.79316 4.87521 5.07881 4.87521 5.3451V12.9125C4.87521 13.1909 4.92889 13.4862 5.5633 13.4862H20.9624C22.1483 13.4862 23.1121 14.4424 23.1121 15.619V18.1051H5.5633V18.1075Z" fill="#1DEC80"/>
<path d="M32.6038 18.1075C30.3468 18.1075 28.6217 17.6209 27.4773 16.6599C26.3183 15.6867 25.7302 14.2246 25.7302 12.3073V5.9963C25.7302 4.07176 26.3183 2.59992 27.4773 1.62676C28.6217 0.663286 30.3468 0.174286 32.6038 0.174286H42.0004C44.2575 0.174286 45.9826 0.663286 47.1294 1.62676C48.2884 2.60234 48.8765 4.07176 48.8765 5.9963V12.3073C48.8765 14.2222 48.2884 15.6867 47.1294 16.6599C45.9826 17.6209 44.2575 18.1075 42.0029 18.1075H32.6063H32.6038ZM32.6038 4.79316C30.8104 4.79316 30.603 5.48067 30.603 5.9963V12.3073C30.603 12.6002 30.603 13.4887 32.6038 13.4887H42.0004C44.0013 13.4887 44.0013 12.6002 44.0013 12.3073V5.9963C44.0013 5.48067 43.7939 4.79316 42.0004 4.79316H32.6038Z" fill="#1DEC80"/>
<path d="M98.3879 0C97.1069 0 96.0625 1.03368 96.0625 2.30702V13.174C96.0625 13.2103 96.0577 13.2224 96.0577 13.2224C96.0577 13.2224 95.9625 13.3144 95.5501 13.3144H83.4939C82.9571 13.3144 82.9571 13.1861 82.9571 13.1304V2.30702C82.9571 1.0361 81.9152 0 80.6317 0H77.7549V13.5637C77.7549 15.1251 78.2551 16.3186 79.2433 17.115C80.2022 17.8872 81.6297 18.2794 83.4939 18.2794H95.5501C98.1683 18.2794 101.287 17.4684 101.287 13.6073V0H98.3879Z" fill="#1DEC80"/>
<path d="M57.1926 22.9927C56.9852 22.9927 56.7851 22.9128 56.6289 22.77C54.3353 20.6324 52.6053 19.0323 51.8806 18.3811L51.8708 18.3738L51.8611 18.3666C51.7561 18.2964 51.661 18.214 51.5805 18.1196L51.5707 18.1099C51.4511 17.9647 51.3975 17.8364 51.3779 17.788V15.6238C51.3779 14.4473 52.3417 13.4911 53.5276 13.4911H68.9267C69.5611 13.4911 69.6148 13.1957 69.6148 12.9173V5.34994C69.6148 5.08366 69.5611 4.798 68.9267 4.798H53.5935C52.4076 4.798 51.4438 3.84179 51.4438 2.66528V0.174286H68.9267C70.747 0.174286 72.1403 0.55193 73.065 1.29753C74.0093 2.05766 74.4876 3.20028 74.4876 4.69633V13.5661C74.4876 15.0719 74.0093 16.2217 73.065 16.9843C72.1403 17.7299 70.747 18.1099 68.9243 18.1099H58.0197V22.1745C58.0197 22.6296 57.6464 22.9975 57.1877 22.9975L57.1926 22.9927Z" fill="white"/>
</g>
<defs>
<clipPath id="clip0_200_4306">
<rect width="105" height="22.9927" fill="white"/>
</clipPath>
</defs>
</svg>
