<svg width="38" height="27" viewBox="0 0 38 27" fill="none" xmlns="http://www.w3.org/2000/svg">
<g clip-path="url(#clip0_319_4526)">
<path d="M32.3978 0H5.60223C2.51317 0 0 2.62798 0 5.85884V21.1419C0 24.372 2.51317 27.0007 5.60223 27.0007H32.3971C35.4862 27.0007 38 24.3727 38 21.1419V5.85884C38 2.62868 35.4868 0 32.3971 0H32.3978ZM32.3978 1.5283C33.1914 1.5283 33.9312 1.76721 34.5615 2.17335C34.4863 2.24573 34.405 2.32091 34.3149 2.39891L22.2886 12.8012C21.4204 13.5516 20.2532 13.9655 19 13.9655C17.7468 13.9655 16.5796 13.5523 15.712 12.8019L3.68509 2.39891C3.59438 2.32091 3.51441 2.24643 3.43915 2.17335C4.06946 1.76721 4.8093 1.5283 5.6029 1.5283H32.3978ZM36.5385 21.1412C36.5385 23.5288 34.6811 25.471 32.3978 25.471H5.60223C3.31887 25.471 1.46154 23.5288 1.46154 21.1412V5.85884C1.46154 4.85403 1.79349 3.93002 2.34518 3.19433C2.4695 3.3194 2.60255 3.44658 2.75374 3.57658L14.7807 13.9789C15.9096 14.9556 17.4088 15.4938 19 15.4938C20.5912 15.4938 22.0904 14.9556 23.22 13.9789L35.2463 3.57658C35.3968 3.44588 35.5305 3.3187 35.6548 3.19433C36.2065 3.93002 36.5385 4.85403 36.5385 5.85884V21.1419V21.1412Z" fill="#F6F6F6"/>
</g>
<defs>
<clipPath id="clip0_319_4526">
<rect width="38" height="27" fill="white"/>
</clipPath>
</defs>
</svg>
