<svg width="20" height="19" viewBox="0 0 20 19" fill="none" xmlns="http://www.w3.org/2000/svg">
<path d="M19.3145 19L11.5 11.5762C10.8959 12.0947 10.1913 12.4901 9.38641 12.7623C8.58151 13.0345 7.77196 13.1707 6.95776 13.1707C5.01316 13.1707 3.36738 12.5326 2.02043 11.2565C0.673476 9.98032 0 8.42448 0 6.58895C0 4.75344 0.671655 3.19641 2.01496 1.91784C3.35827 0.639281 4.99539 0 6.9263 0C8.85719 0 10.5001 0.638421 11.855 1.91526C13.2099 3.19213 13.8873 4.74758 13.8873 6.58162C13.8873 7.37799 13.7371 8.15901 13.4366 8.92467C13.1361 9.69031 12.7167 10.3593 12.1784 10.9317L20 18.3265L19.3145 19ZM6.95071 12.2786C8.63237 12.2786 10.0524 11.7304 11.2108 10.634C12.3691 9.53754 12.9483 8.18799 12.9483 6.58533C12.9483 4.98267 12.3691 3.63312 11.2108 2.53668C10.0524 1.44025 8.63237 0.892039 6.95071 0.892039C5.26513 0.892039 3.84179 1.44025 2.68068 2.53668C1.51955 3.63312 0.938988 4.98267 0.938988 6.58533C0.938988 8.18799 1.51955 9.53754 2.68068 10.634C3.84179 11.7304 5.26513 12.2786 6.95071 12.2786Z" fill="white"/>
</svg>
