<svg width="10" height="12" viewBox="0 0 10 12" fill="none" xmlns="http://www.w3.org/2000/svg">
<g clip-path="url(#clip0_182_917)">
<path d="M7.84066 5.58952C7.79184 5.5652 7.74244 5.54209 7.69244 5.5202C7.60539 3.85938 6.72784 2.90887 5.25387 2.89914C5.2474 2.89914 5.24035 2.89914 5.23388 2.89914C4.3522 2.89914 3.61934 3.28834 3.16821 3.99621L3.97871 4.5709C4.31574 4.04243 4.8445 3.92932 5.23446 3.92932C5.23917 3.92932 5.24329 3.92932 5.24799 3.92932C5.73323 3.93236 6.09908 4.07831 6.33611 4.36292C6.50845 4.57029 6.62373 4.85611 6.68078 5.21735C6.25083 5.14194 5.78558 5.11822 5.28799 5.14802C3.88696 5.23133 2.98646 6.07603 3.04646 7.25034C3.07704 7.8457 3.36407 8.35836 3.85461 8.69284C4.26927 8.97562 4.80274 9.11427 5.35798 9.08265C6.09084 9.0413 6.66549 8.75183 7.06663 8.22336C7.3713 7.82199 7.56363 7.30203 7.64892 6.64646C7.99829 6.86418 8.25709 7.15121 8.40002 7.49603C8.64293 8.08166 8.65705 9.04495 7.89713 9.83005C7.23131 10.5178 6.43081 10.8152 5.22152 10.8243C3.8799 10.814 2.8653 10.3695 2.20537 9.50226C1.58778 8.6904 1.26841 7.51731 1.25664 6.01644C1.26841 4.51556 1.58778 3.34247 2.20537 2.53061C2.8653 1.66341 3.8799 1.21886 5.22152 1.20852C6.57256 1.21886 7.60539 1.66584 8.29003 2.5373C8.62587 2.96482 8.87879 3.5018 9.04583 4.12818L9.99573 3.86607C9.7934 3.09496 9.4752 2.43027 9.04171 1.8793C8.16416 0.762152 6.87959 0.189897 5.22505 0.177734H5.21858C3.56699 0.189289 2.29712 0.763976 1.44427 1.88538C0.684937 2.88333 0.293213 4.2717 0.280273 6.01157V6.01583V6.02008C0.293213 7.76057 0.684937 9.14894 1.44427 10.1463C2.29712 11.2677 3.56699 11.8418 5.21858 11.8539H5.22505C6.69313 11.8436 7.72773 11.4459 8.58058 10.5653C9.69576 9.41287 9.66224 7.96916 9.29463 7.0825C9.03113 6.44699 8.52824 5.93069 7.84066 5.58952ZM5.30563 8.05369C4.69158 8.08957 4.05341 7.80435 4.02224 7.19378C3.99871 6.74133 4.33397 6.23597 5.34328 6.17577C5.45915 6.16908 5.57208 6.16543 5.68383 6.16543C6.05085 6.16543 6.39375 6.20252 6.70549 6.27246C6.58903 7.77455 5.90675 8.01841 5.30563 8.05247V8.05369Z" fill="white"/>
</g>
<defs>
<clipPath id="clip0_182_917">
<rect width="9.71546" height="11.6762" fill="white" transform="translate(0.280273 0.177734)"/>
</clipPath>
</defs>
</svg>
