<svg width="12" height="13" viewBox="0 0 12 13" fill="none" xmlns="http://www.w3.org/2000/svg">
<g clip-path="url(#clip0_182_907)">
<path d="M11.0171 3.65198C11.0171 3.59661 11.0171 3.5944 10.9569 3.59661C10.8189 3.59661 10.6808 3.58111 10.5427 3.56118C10.0461 3.48588 8.43606 2.64654 8.16215 1.27126C8.15769 1.24469 8.09534 0.903636 8.09757 0.757471C8.09757 0.693247 8.09757 0.693247 8.03299 0.691032C8.0174 0.691032 8.00404 0.691032 7.98845 0.691032C7.35823 0.691032 6.72801 0.691032 6.09779 0.691032C5.97086 0.691032 5.98867 0.67553 5.98867 0.801763C5.98867 3.52132 5.98867 6.23866 5.98867 8.95821C5.98867 9.06008 5.98644 9.16195 5.96863 9.2594C5.87287 9.78648 5.60341 10.1962 5.14467 10.4774C4.74827 10.721 4.31625 10.7897 3.8575 10.7011C3.71275 10.6723 3.57691 10.6192 3.44107 10.566C3.42994 10.5572 3.4188 10.5461 3.40767 10.5372C3.36313 10.4996 3.31191 10.4686 3.26292 10.4331C2.67946 10.0323 2.40332 9.47422 2.48572 8.77661C2.57034 8.06793 2.9801 7.58736 3.65485 7.34154C3.85528 7.26846 4.06906 7.23745 4.28285 7.24852C4.42092 7.25517 4.55899 7.27288 4.6926 7.31053C4.73937 7.32382 4.76386 7.30832 4.76609 7.25738C4.76609 7.23967 4.76609 7.22195 4.76609 7.20645C4.76609 6.71923 4.74827 5.65178 4.74605 5.64957C4.74605 5.51005 4.74605 5.36831 4.7505 5.22879C4.7505 5.18893 4.73046 5.18228 4.69705 5.17785C4.44319 5.14685 4.18932 5.14242 3.93322 5.16014C3.57914 5.18671 3.23842 5.25758 2.90438 5.37717C2.37437 5.56763 1.90672 5.85996 1.50587 6.25194C1.1607 6.58857 0.889016 6.97834 0.688592 7.41683C0.497077 7.83761 0.387958 8.27832 0.359008 8.73675C0.345646 8.93606 0.347873 9.13538 0.367915 9.33469C0.392412 9.61152 0.445858 9.88171 0.530481 10.1452C0.773216 10.9026 1.21415 11.525 1.83991 12.0166C1.90449 12.0675 1.96462 12.1207 2.04034 12.1539C2.07151 12.1827 2.10492 12.2093 2.13609 12.2381C2.2363 12.3134 2.34542 12.3798 2.459 12.4352C3.16048 12.7784 3.89759 12.9202 4.67479 12.8249C5.68358 12.7031 6.52536 12.258 7.18676 11.4917C7.81029 10.7698 8.11316 9.92378 8.11761 8.97593C8.12652 7.62279 8.11761 6.26745 8.11984 4.91431C8.11984 4.88109 8.10202 4.8368 8.13765 4.81908C8.1666 4.8058 8.19332 4.84345 8.22005 4.86116C8.72779 5.19114 9.27338 5.43253 9.86574 5.56541C10.2109 5.64292 10.5583 5.69165 10.9124 5.69165C11.0237 5.69165 11.0393 5.685 11.0393 5.57649C11.0393 5.09591 11.0148 3.78043 11.0148 3.65419L11.0171 3.65198Z" fill="white"/>
</g>
<defs>
<clipPath id="clip0_182_907">
<rect width="10.687" height="12.1627" fill="white" transform="translate(0.354492 0.691406)"/>
</clipPath>
</defs>
</svg>
