<svg width="29" height="29" viewBox="0 0 29 29" fill="none" xmlns="http://www.w3.org/2000/svg">
<path fill-rule="evenodd" clip-rule="evenodd" d="M21.436 17.3358C21.0794 17.1398 19.3242 16.2036 18.9951 16.073C18.666 15.9424 18.4246 15.8716 18.1723 16.2254C17.92 16.5738 17.1905 17.363 16.9711 17.597C16.7517 17.8311 16.5377 17.8529 16.1812 17.6569C15.8247 17.461 14.6673 17.0364 13.3289 15.7573C12.2867 14.7613 11.6011 13.5529 11.4036 13.1828C11.2062 12.8127 11.4036 12.6276 11.5901 12.4535C11.7602 12.2956 11.9686 12.0452 12.1606 11.8438C12.3471 11.6425 12.4129 11.4901 12.5445 11.256C12.6762 11.022 12.6213 10.8097 12.5391 10.6246C12.4568 10.4396 11.7931 8.63795 11.5188 7.9086C11.2446 7.1738 10.9374 7.28266 10.7235 7.27721C10.5096 7.27177 10.2682 7.22823 10.0269 7.22278C9.78551 7.2119 9.3851 7.2881 9.03953 7.63645C8.69397 7.9848 7.71761 8.82301 7.65179 10.5974C7.58597 12.3718 8.82012 14.1353 8.99565 14.3803C9.16569 14.6306 11.3598 18.4733 14.9964 20.0572C18.6385 21.6411 18.655 21.1567 19.3242 21.1241C19.9934 21.0914 21.5073 20.3294 21.8419 19.5021C22.1765 18.6693 22.2039 17.9508 22.1161 17.7984C22.0284 17.646 21.7925 17.5426 21.436 17.3521V17.3358ZM14.7605 25.8866C12.3526 25.8866 10.1146 25.1682 8.2387 23.9435L3.68602 25.3913L5.16701 21.0261C3.74636 19.0884 2.91262 16.7044 2.91262 14.1299C2.91262 7.64189 8.22773 2.36768 14.7605 2.36768C21.2934 2.36768 26.614 7.64189 26.614 14.1299C26.614 20.6179 21.2988 25.8921 14.7605 25.8921V25.8866ZM14.7605 0C6.90032 0 0.526575 6.3247 0.526575 14.1244C0.526575 16.7915 1.27256 19.2898 2.57254 21.418L0 29L7.88216 26.4962C9.92264 27.6175 12.2648 28.2543 14.7605 28.2543C22.6263 28.2543 29 21.9296 29 14.1244C29 6.31926 22.6263 0 14.7605 0Z" fill="#F6F6F6"/>
</svg>
