<svg width="13" height="14" viewBox="0 0 13 14" fill="none" xmlns="http://www.w3.org/2000/svg">
<path fill-rule="evenodd" clip-rule="evenodd" d="M9.60923 7.97205C9.44941 7.88674 8.66257 7.47914 8.51504 7.42227C8.36751 7.3654 8.25932 7.33459 8.14621 7.48862C8.0331 7.64028 7.70607 7.9839 7.60772 8.08579C7.50936 8.18769 7.41347 8.19717 7.25364 8.11186C7.09382 8.02655 6.575 7.84171 5.97503 7.28483C5.50785 6.85117 5.20049 6.32509 5.11197 6.16394C5.02345 6.0028 5.11197 5.92223 5.19557 5.8464C5.2718 5.77768 5.36524 5.66867 5.4513 5.58099C5.5349 5.49331 5.5644 5.42696 5.62342 5.32506C5.68243 5.22316 5.65784 5.13074 5.62096 5.05017C5.58407 4.9696 5.28655 4.18522 5.16361 3.86768C5.04067 3.54777 4.90297 3.59516 4.80707 3.59279C4.71118 3.59042 4.60299 3.57147 4.4948 3.5691C4.38661 3.56436 4.20711 3.59753 4.0522 3.74919C3.8973 3.90086 3.45962 4.26579 3.43011 5.03832C3.40061 5.81086 3.95385 6.57865 4.03253 6.68528C4.10876 6.79429 5.0923 8.46732 6.72253 9.15691C8.35521 9.8465 8.36259 9.63559 8.66257 9.62138C8.96255 9.60716 9.6412 9.2754 9.79119 8.9152C9.94118 8.55263 9.95347 8.23983 9.91413 8.17347C9.87479 8.10712 9.76906 8.0621 9.60923 7.97915V7.97205ZM6.6168 11.6949C5.53736 11.6949 4.53414 11.3821 3.69321 10.8489L1.65235 11.4792L2.31625 9.57872C1.6794 8.7351 1.30566 7.69716 1.30566 6.57628C1.30566 3.75156 3.68829 1.4553 6.6168 1.4553C9.5453 1.4553 11.9304 3.75156 11.9304 6.57628C11.9304 9.40099 9.54776 11.6973 6.6168 11.6973V11.6949ZM6.6168 0.424469C3.09325 0.424469 0.236051 3.17809 0.236051 6.57391C0.236051 7.73507 0.570456 8.82278 1.15321 9.74934L0 13.0504L3.53338 11.9603C4.44808 12.4485 5.49801 12.7257 6.6168 12.7257C10.1428 12.7257 13 9.97209 13 6.57391C13 3.17572 10.1428 0.424469 6.6168 0.424469Z" fill="#1A1A1A"/>
</svg>
