<svg width="17" height="12" viewBox="0 0 17 12" fill="none" xmlns="http://www.w3.org/2000/svg">
<g clip-path="url(#clip0_182_909)">
<path d="M0.012914 5.64811C0.0323967 5.12356 0.0433949 4.59871 0.0735616 4.07478C0.110327 3.43608 0.181973 2.80014 0.335006 2.17644C0.407594 1.88081 0.512235 1.59527 0.674695 1.333C0.947766 0.893228 1.36319 0.649012 1.85968 0.513744C2.33229 0.384903 2.81841 0.355829 3.30359 0.328286C4.1888 0.278402 5.07431 0.224846 5.96046 0.201281C6.91762 0.176186 7.87573 0.176492 8.83321 0.178635C9.65713 0.180471 10.4814 0.196385 11.3053 0.214135C12.0089 0.229131 12.7131 0.238312 13.4151 0.282381C13.9018 0.312984 14.3854 0.396226 14.8697 0.4608C15.1406 0.496912 15.4011 0.571585 15.6455 0.693693C16.1694 0.955354 16.4842 1.38074 16.6439 1.9209C16.7752 2.36496 16.8447 2.82125 16.8924 3.28031C16.9867 4.18617 17.0109 5.09571 17.0103 6.00495C17.0099 6.6617 16.9889 7.31937 16.9521 7.97521C16.9194 8.55729 16.8481 9.13753 16.7237 9.70921C16.664 9.98372 16.5788 10.2506 16.4497 10.5034C16.2017 10.9887 15.7979 11.2874 15.275 11.4499C14.8175 11.5922 14.3449 11.6437 13.8692 11.6697C13.1744 11.7076 12.4793 11.741 11.7842 11.7652C11.1124 11.7884 10.4399 11.7948 9.76774 11.8132C9.40951 11.823 9.0516 11.8527 8.69368 11.8542C8.30937 11.856 7.92506 11.8346 7.54075 11.8251C7.0518 11.8132 6.56254 11.8034 6.07358 11.793C5.08751 11.7722 4.10081 11.7587 3.11851 11.6614C2.67166 11.617 2.22136 11.5861 1.78772 11.4594C1.35753 11.334 0.98956 11.1157 0.723087 10.7558C0.516006 10.4764 0.396282 10.1609 0.327464 9.82427C0.214025 9.26912 0.133581 8.70969 0.0839314 8.14567C0.0104001 7.31447 -0.000912356 6.48175 0.012914 5.64811ZM6.77307 8.49883C8.27858 7.66427 9.77089 6.83675 11.2802 6.00005C9.76774 5.16335 8.27638 4.33827 6.77307 3.50647V8.49883Z" fill="white"/>
</g>
<defs>
<clipPath id="clip0_182_909">
<rect width="17.0021" height="11.6762" fill="white" transform="translate(0.0078125 0.177734)"/>
</clipPath>
</defs>
</svg>
